<svg width="48" height="23" viewBox="0 0 48 23" fill="none" xmlns="http://www.w3.org/2000/svg">
<path d="M10.3015 0.909286L0 11.3472L10.3009 21.7841C11.2406 22.7363 12.7644 22.7363 13.7041 21.7852C14.6444 20.8335 14.6449 19.2907 13.7052 18.3385L7.17454 11.7247L5.20375 12.9694L13.7057 4.35489C14.1756 3.87905 14.41 3.25584 14.41 2.63209C14.41 2.00833 14.1745 1.38404 13.7047 0.908199C12.7649 -0.0429316 11.2412 -0.0423884 10.3015 0.909286Z" fill="#F87700"/>
<path d="M37.1091 0.909816L47.4105 11.3472L37.1096 21.7841C36.1699 22.7363 34.6461 22.7363 33.7064 21.7852C32.7662 20.8335 32.7656 19.2907 33.7053 18.3385L40.236 11.7252L42.2068 12.97L33.7042 4.35542C33.2344 3.87958 33 3.25637 33 2.63262C33 2.00886 33.2355 1.38457 33.7053 0.908728C34.6456 -0.042946 36.1693 -0.0424018 37.1091 0.909816Z" fill="#F87700"/>
<path d="M29.3986 1.74947C29.1707 1.16867 28.7237 0.673803 28.1119 0.402984C26.8889 -0.139198 25.4706 0.418212 24.9442 1.64723L17.4287 19.083C17.1655 19.6975 17.1747 20.3637 17.4026 20.9439C17.6305 21.5247 18.0775 22.0196 18.6893 22.2904C19.9123 22.8326 21.3306 22.2752 21.857 21.0462L29.3725 3.6104C29.6357 2.99589 29.6264 2.32972 29.3986 1.74947Z" fill="#F87700"/>
</svg>
